<?xml version="1.0" encoding="utf-8"?><svg version="1.1" id="Layer_1" xmlns="http://www.w3.org/2000/svg" xmlns:xlink="http://www.w3.org/1999/xlink" x="0px" y="0px" viewBox="0 0 85.74 122.88" style="enable-background:new 0 0 85.74 122.88" xml:space="preserve"><style type="text/css">.st0{fill-rule:evenodd;clip-rule:evenodd;}</style><g><path class="st0" d="M78.27,38.12c3.55-0.53,6.86,1.91,7.4,5.46c0.53,3.55-1.91,6.86-5.46,7.39c-2.5,0.38-4.89-0.73-6.26-2.66 c-3.57,0.93-6.69,2.33-9.49,4.22c-2.45,1.65-4.67,3.69-6.77,6.13c0.49,0.44,0.97,0.92,1.42,1.43c-0.01,0.55-0.42,1.34-0.8,1.79 c-10.22,12.67-19.42,32.79-22.49,54.84c-0.28,2.04-0.51,4.09-0.69,6.15h-5.2c0.19-2.3,0.44-4.58,0.76-6.85 c3-21.46,11.58-41.2,21.41-54.56l-0.14-0.1c-0.43-0.33-0.74-0.75-0.92-1.22l-4.97-2.97c-0.27-0.09-0.54-0.23-0.78-0.4 c-0.1-0.07-0.19-0.15-0.27-0.23l-13.19-7.89C18.9,63.78,11.24,82.96,7.6,102.58c-1.26,6.77-2.05,13.58-2.41,20.3H0 c0.37-7.03,1.18-14.16,2.5-21.24C6.43,80.5,14.85,59.81,29.27,43.69c0.81-0.99,2.23-1.27,3.35-0.6l0.35,0.21 c1.31-2.91,2.24-5.92,2.85-9c0.58-2.95,0.87-5.96,0.89-9.02c-2.35-0.79-4.18-2.83-4.58-5.45c-0.56-3.72,2-7.2,5.73-7.76 c3.72-0.56,7.2,2,7.76,5.73c0.42,2.81-0.94,5.48-3.23,6.86c0.02,3.67-0.29,7.25-0.98,10.73c-0.73,3.71-1.89,7.33-3.54,10.86 l1.64,0.99c3.86-4.82,7.05-10.17,9.59-16c2.5-5.73,4.39-11.93,5.71-18.58c-1.67-1.01-2.9-2.73-3.21-4.82 c-0.56-3.72,2-7.2,5.73-7.76c3.72-0.56,7.2,2,7.76,5.73c0.5,3.34-1.51,6.48-4.62,7.5c-1.41,7.23-3.44,13.98-6.16,20.2 c-2.65,6.07-5.93,11.65-9.88,16.69l0.87,0.52l0.62,0.37c3.14-4.22,6.38-8.37,9.69-12.45c3.6-4.42,7.29-8.77,11.06-13.05 c-0.05-0.22-0.1-0.43-0.13-0.66c-0.55-3.66,1.97-7.08,5.63-7.63c3.66-0.55,7.08,1.97,7.63,5.63c0.55,3.66-1.97,7.08-5.63,7.63 c-1.35,0.2-2.67-0.01-3.82-0.55c-3.48,3.96-6.92,8.03-10.32,12.21c-3.11,3.82-6.17,7.75-9.18,11.78l1.21,0.72l1,0.6 c2.52-2.99,5.21-5.49,8.22-7.51c3.46-2.33,7.31-4.03,11.75-5.13C73.71,40.35,75.7,38.5,78.27,38.12L78.27,38.12z M19.21,122.88 c0.13-1.7,0.29-3.39,0.48-5.07c2.53-21.67,10.92-41.79,20.71-55.55c0.52-0.72,1.53-0.9,2.27-0.38c0.72,0.52,0.9,1.53,0.38,2.27 c-9.51,13.37-17.65,32.94-20.12,54.03c-0.18,1.56-0.33,3.12-0.45,4.69H19.21L19.21,122.88z M78.86,42 c1.41-0.21,2.72,0.76,2.93,2.17c0.21,1.41-0.76,2.72-2.17,2.93c-1.41,0.21-2.72-0.76-2.93-2.17C76.48,43.52,77.45,42.21,78.86,42 L78.86,42z M57.97,4.27c1.41-0.21,2.72,0.76,2.93,2.17c0.21,1.41-0.76,2.72-2.17,2.93c-1.41,0.21-2.72-0.76-2.93-2.17 C55.59,5.8,56.56,4.48,57.97,4.27L57.97,4.27z M38.5,16.26c1.41-0.21,2.72,0.76,2.93,2.17c0.21,1.41-0.76,2.72-2.17,2.93 c-1.41,0.21-2.72-0.76-2.93-2.17C36.12,17.79,37.09,16.48,38.5,16.26L38.5,16.26z M72.79,21.38c1.41-0.21,2.72,0.76,2.93,2.17 c0.21,1.41-0.76,2.72-2.17,2.93c-1.41,0.21-2.72-0.76-2.93-2.17C70.41,22.9,71.38,21.59,72.79,21.38L72.79,21.38z"/></g></svg>